<?xml version="1.0" encoding="UTF-8"?>
<svg version="1.1" xmlns="http://www.w3.org/2000/svg" width="512" height="512">
<path d="M0 0 C0.75539063 0.18272461 1.51078125 0.36544922 2.2890625 0.55371094 C41.85712905 10.23898125 71.37515762 35.97013898 92.33886719 69.83789062 C109.47303711 98.36717286 115.19026295 136.49352358 108.03515625 169.07421875 C107.69543015 170.38420528 107.35001158 171.69272404 107 173 C106.70198486 174.17296631 106.70198486 174.17296631 106.39794922 175.36962891 C96.00932835 215.60899859 69.92065439 245.66467868 34.8125 266.75 C6.89464513 283.02205569 -32.48920818 288.70760169 -63.97021484 280.54345703 C-64.64004395 280.36411621 -65.30987305 280.18477539 -66 280 C-66.78197754 279.80132324 -67.56395508 279.60264648 -68.36962891 279.39794922 C-104.5862103 270.04789388 -136.38629806 246.87236305 -155.60546875 214.71484375 C-156.43020837 213.29236887 -157.24937624 211.86664659 -158.0625 210.4375 C-158.63556885 209.43783203 -158.63556885 209.43783203 -159.22021484 208.41796875 C-161.12797086 204.97508582 -162.51065057 201.9223239 -163 198 C-163.66 198 -164.32 198 -165 198 C-178.40121413 159.58355276 -181.22859178 120.20319212 -165 82 C-164.34 82 -163.68 82 -163 82 C-162.71125 80.845 -162.4225 79.69 -162.125 78.5 C-151.36211634 46.1603401 -120.5928717 23.10464732 -91.41015625 8.484375 C-83.23179586 4.58837864 -74.78119561 2.12412027 -66 0 C-65.33742188 -0.17499023 -64.67484375 -0.34998047 -63.9921875 -0.53027344 C-44.37352872 -5.62668428 -19.5337475 -5.15896152 0 0 Z " fill="#FFAB32" transform="translate(289,116)"/>
<path d="M0 0 C8.30839152 6.96455885 13.11577432 14.79987662 14.4375 25.5625 C13.33639711 34.21402269 10.75069606 40.46666483 5 47 C4.12988281 47.99 3.25976562 48.98 2.36328125 50 C-20.22750846 75.24253877 -20.22750846 75.24253877 -33.07421875 76.23828125 C-40.48932474 76.39059154 -45.8060694 76.18744604 -52 72 C-53.546875 71.13375 -53.546875 71.13375 -55.125 70.25 C-61.81221651 65.01652621 -65.61710886 58.55052784 -66.75 50.1875 C-67.38205907 42.43041137 -65.2802421 35.52661505 -61 29 C-57.38279285 24.90052309 -53.49014547 21.11178708 -49.5625 17.3125 C-48.51404241 16.28415203 -47.46650874 15.25486119 -46.41992188 14.22460938 C-44.49068199 12.32777735 -42.55551239 10.43787462 -40.61547852 8.55200195 C-38.82438228 6.80437487 -37.05160806 5.03782728 -35.29492188 3.25561523 C-33.20157311 1.19812064 -31.56636303 -0.01657719 -28.9375 -1.25 C-28.28652344 -1.56453125 -27.63554688 -1.8790625 -26.96484375 -2.203125 C-18.10282955 -5.79726197 -8.22110828 -4.72450604 0 0 Z " fill="#FFAB32" transform="translate(140,376)"/>
<path d="M0 0 C2.35934422 1.88747537 4.02193733 3.57525911 5.9453125 5.859375 C10.55909371 11.20171162 15.64295311 16.03864521 20.75976562 20.89453125 C27.90951185 27.87207128 31.9137257 34.66711543 32.125 44.875 C32.0607635 53.76716711 29.68850379 59.62519573 23.8125 66.25 C21.12109375 68.234375 21.12109375 68.234375 18.25 70 C16.82494141 70.88945312 16.82494141 70.88945312 15.37109375 71.796875 C8.85910972 75.49528425 0.28157124 75.45045125 -6.86328125 73.53125 C-14.02638331 70.46311648 -19.39954322 66.34376317 -24.1875 60.25 C-25.37926267 59.18941496 -26.58992446 58.14991363 -27.8125 57.125 C-37.94108621 48.39737712 -47.28555713 38.53214874 -48.5 24.6875 C-48.26335201 14.85750664 -43.68182777 7.48251386 -36.96484375 0.578125 C-25.32421537 -9.17970132 -12.31405417 -6.76065719 0 0 Z " fill="#FFAB32" transform="translate(406.1875,377.75)"/>
<path d="M0 0 C6.54476652 4.01871629 11.71813287 10.61760417 15.8125 17 C17.73313017 25.09408429 18.10485037 33.97474108 14.1328125 41.48828125 C8.1759801 50.55232623 0.56066579 58.28453717 -7.3125 65.6875 C-8.199375 66.52925781 -9.08625 67.37101562 -10 68.23828125 C-17.67212034 75.05174859 -26.13490694 79.29888579 -36.625 78.6875 C-45.54366668 77.20585054 -52.25923659 72.26506181 -58.3125 65.6875 C-63.03374951 58.52780295 -64.53755064 50.81275319 -62.8515625 42.3828125 C-59.76664395 31.89408943 -51.57037413 24.57247096 -44.04541016 17.04980469 C-42.43707316 15.43707199 -40.84546199 13.80896247 -39.25390625 12.1796875 C-28.95118617 1.76448095 -15.07230298 -6.38867163 0 0 Z " fill="#FFAB32" transform="translate(435.3125,75.3125)"/>
<path d="M0 0 C6.65011907 5.26418273 12.65201597 11.37085388 18.6875 17.3125 C20.07291992 18.6418457 20.07291992 18.6418457 21.48632812 19.99804688 C29.2986674 27.70914633 34.37772459 35.06598849 35.25 46.1875 C34.60681684 55.99604322 31.28003616 62.38653807 24 69 C17.62149207 74.0583912 11.20863473 76.37862502 3.0625 75.875 C-6.26138813 74.61848828 -12.31842736 70.33236153 -19 64 C-19.99510961 63.10162776 -20.99267699 62.2059733 -21.9921875 61.3125 C-23.05759094 60.35449938 -24.12269531 59.39616608 -25.1875 58.4375 C-25.68677002 57.99075928 -26.18604004 57.54401855 -26.70043945 57.08374023 C-30.15241753 53.93727744 -33.05052485 50.60157 -36 47 C-36.845625 46.236875 -37.69125 45.47375 -38.5625 44.6875 C-44.85631182 37.74816902 -45.6738887 30.72793182 -45.37109375 21.515625 C-44.87082906 16.7762753 -43.87909091 13.76913245 -41 10 C-40.35546875 9.15566406 -39.7109375 8.31132813 -39.046875 7.44140625 C-29.02154473 -4.63455976 -14.04287539 -8.83731298 0 0 Z " fill="#FFAB32" transform="translate(105,78)"/>
<path d="M0 0 C0.80829254 -0.01283524 1.61658508 -0.02567047 2.44937134 -0.03889465 C3.31605438 -0.04628159 4.18273743 -0.05366852 5.07568359 -0.0612793 C5.97854095 -0.06935104 6.88139832 -0.07742279 7.81161499 -0.08573914 C9.72302342 -0.09955707 11.63445628 -0.11028945 13.54589844 -0.11816406 C15.48737898 -0.1296569 17.42882861 -0.15006575 19.37011719 -0.1796875 C43.85237457 -0.55303254 43.85237457 -0.55303254 52.47021484 7.5246582 C58.93370359 15.2698586 61.20802018 23.16770515 60.84912109 33.17700195 C60.16162109 36.98950195 60.16162109 36.98950195 58.84912109 40.17700195 C58.59130859 40.8318457 58.33349609 41.48668945 58.06787109 42.16137695 C55.11818284 48.92531727 50.53578694 53.12465969 43.91552734 56.31762695 C36.19839058 59.29770722 27.90429744 58.77178604 19.75463867 58.69848633 C16.92132704 58.6770753 14.09055787 58.69833684 11.25732422 58.72387695 C0.45040239 58.73980199 -8.56729754 58.18439931 -18.02587891 52.42700195 C-24.88765524 45.16159172 -26.35141819 38.61533626 -26.46337891 28.92700195 C-26.49238281 28.10586914 -26.52138672 27.28473633 -26.55126953 26.4387207 C-26.61344986 20.40244544 -25.29199472 16.30521658 -22.15087891 11.17700195 C-21.61462891 10.29012695 -21.07837891 9.40325195 -20.52587891 8.48950195 C-15.09154364 3.19817551 -7.57123985 0.10540922 0 0 Z " fill="#FFAC32" transform="translate(26.15087890625,226.822998046875)"/>
<path d="M0 0 C6.88098553 4.88995962 10.78385094 11.0541813 12.6875 19.19921875 C12.9765295 22.28969966 13.01507925 25.36215642 13.0234375 28.46484375 C13.0300943 29.33888855 13.0367511 30.21293335 13.04360962 31.11346436 C13.053691 32.95566723 13.05842804 34.79790629 13.05810547 36.64013672 C13.06246584 39.42738544 13.09879747 42.21303207 13.13671875 45 C13.20612118 56.01672628 12.59259053 64.92740668 6.625 74.51171875 C-0.46309648 80.99657298 -8.49716229 84.57720379 -18.140625 84.4140625 C-25.86901383 83.64956361 -34.06228708 80.09803291 -39.07421875 74.0859375 C-44.18771023 66.71904299 -45.6260268 60.40179413 -45.6484375 51.55859375 C-45.6550943 50.63637024 -45.6617511 49.71414673 -45.66860962 48.76397705 C-45.67870562 46.81744369 -45.68342759 44.87087592 -45.68310547 42.92431641 C-45.68746577 39.97238928 -45.72378219 37.02197427 -45.76171875 34.0703125 C-45.76759042 32.17057797 -45.77155747 30.27083642 -45.7734375 28.37109375 C-45.78780853 27.50095642 -45.80217957 26.63081909 -45.81698608 25.73431396 C-45.75600556 17.40203912 -43.3268745 9.21359325 -37.3125 3.19921875 C-27.49984593 -4.26693108 -11.08548177 -6.1706295 0 0 Z " fill="#FFAB32" transform="translate(272.3125,2.80078125)"/>
<path d="M0 0 C0.81159576 -0.00960754 1.62319153 -0.01921509 2.4593811 -0.02911377 C3.77185318 -0.03548859 3.77185318 -0.03548859 5.11083984 -0.04199219 C6.01748383 -0.04769226 6.92412781 -0.05339233 7.85824585 -0.05926514 C9.77983434 -0.06871412 11.70143902 -0.07524871 13.62304688 -0.07910156 C16.53984589 -0.08876144 19.45592631 -0.11976663 22.37255859 -0.15136719 C24.24364818 -0.15790224 26.11474279 -0.16315074 27.98583984 -0.16699219 C28.84867584 -0.17933899 29.71151184 -0.19168579 30.60049438 -0.20440674 C38.57264057 -0.17559886 45.95120196 1.66625206 52.37646484 6.56738281 C58.56894115 12.85228414 60.14179962 20.34770175 60.19677734 28.84863281 C60.21740234 29.62658203 60.23802734 30.40453125 60.25927734 31.20605469 C60.30401148 37.91058268 58.8705416 43.0973601 55.25927734 48.84863281 C47.54978017 56.55812998 38.98518123 58.46946428 28.42724609 58.49707031 C27.52863358 58.50372711 26.63002106 58.51038391 25.70417786 58.51724243 C23.8106998 58.52732477 21.91718652 58.53206083 20.02368164 58.53173828 C17.15303904 58.53610428 14.28394473 58.57245076 11.41357422 58.61035156 C-0.39815292 58.68342865 -10.4962222 58.33481248 -19.58447266 49.86816406 C-26.19362859 42.18677805 -26.70781216 32.88299918 -26.05322266 23.16113281 C-24.90235596 16.27543885 -22.54318183 10.63738583 -17.05322266 6.16113281 C-11.7295099 2.96856364 -6.3010082 0.06039903 0 0 Z " fill="#FFAB32" transform="translate(452.05322265625,226.8388671875)"/>
<path d="M0 0 C5.38387587 4.34851513 8.25187278 10.76367027 9.6875 17.4375 C9.78382587 18.79346144 9.83522684 20.15313871 9.84863281 21.51245117 C9.85824036 22.30395065 9.8678479 23.09545013 9.87774658 23.91093445 C9.88199646 24.75888077 9.88624634 25.60682709 9.890625 26.48046875 C9.89632507 27.36350174 9.90202515 28.24653473 9.90789795 29.15632629 C9.91733483 31.0248597 9.92387672 32.89340964 9.92773438 34.76196289 C9.9374061 37.5974702 9.96842775 40.43224183 10 43.26757812 C10.00653417 45.08853739 10.01178301 46.90950181 10.015625 48.73046875 C10.0279718 49.56829391 10.0403186 50.40611908 10.05303955 51.26933289 C10.02227529 59.54455723 8.18077524 66.59883788 2.5 72.8125 C1.78457031 73.62460937 1.06914062 74.43671875 0.33203125 75.2734375 C-5.60008639 80.12778488 -11.84019163 80.92726242 -19.3125 80.8125 C-20.06789062 80.82410156 -20.82328125 80.83570313 -21.6015625 80.84765625 C-28.79381954 80.81058276 -35.42427272 79.02756434 -40.9296875 74.09375 C-45.56075303 68.54693705 -48.38915159 61.49449778 -48.48950195 54.28662109 C-48.50233719 53.47832855 -48.51517242 52.67003601 -48.52839661 51.83724976 C-48.53947701 50.53722519 -48.53947701 50.53722519 -48.55078125 49.2109375 C-48.558853 48.30808014 -48.56692474 47.40522278 -48.57524109 46.4750061 C-48.58905902 44.56359768 -48.5997914 42.65216481 -48.60766602 40.74072266 C-48.61915886 38.79924211 -48.6395677 36.85779249 -48.66918945 34.91650391 C-48.8525454 22.89286064 -48.84778194 13.5072042 -42.1875 3.125 C-30.63756741 -7.67167611 -13.10303343 -8.677994 0 0 Z " fill="#FFAB32" transform="translate(275.3125,431.5625)"/>
</svg>
